<?xml version="1.0" standalone="no"?>
<!DOCTYPE svg PUBLIC "-//W3C//DTD SVG 1.1//EN" "http://www.w3.org/Graphics/SVG/1.1/DTD/svg11.dtd">
<svg width="100%" height="100%" viewBox="0 0 120 120" version="1.1" xmlns="http://www.w3.org/2000/svg" xmlns:xlink="http://www.w3.org/1999/xlink" xml:space="preserve" style="fill-rule:evenodd;clip-rule:evenodd;stroke-linejoin:round;stroke-miterlimit:1.41421;">
    <g transform="matrix(0.078125,0,0,-0.078125,50,110)">
        <path d="M0,768L0,640L128,640L128,768L0,768ZM-128,896L256,896L256,512L-128,512L-128,896ZM-256,1024L-256,384L384,384L384,1024L-256,1024ZM-384,1152L512,1152L512,256L-384,256L-384,1152ZM-512,1280L-512,128L640,128L640,1280L-512,1280ZM-640,1408L768,1408L768,0L-640,0L-640,1408Z" style="fill:rgb(197,152,32);fill-rule:nonzero;"/>
    </g>
    <g transform="matrix(0.078125,0,0,-0.078125,50,110)">
        <path d="M-640,512L-384,512L-384,256L512,256L512,512L768,512L768,0L-640,0L-640,512ZM-64,1407L192,1407L192,896L512,896L64,448L-384,896L-64,896L-64,1407Z" style="fill:rgb(67,130,13);fill-rule:nonzero;"/>
    </g>
    <g transform="matrix(0.078125,0,0,-0.078125,50,110)">
        <path d="M511,637C465,680 403,691 330,691C251,691 160,678 64,678C-33,678 -123,691 -202,691C-275,691 -337,680 -383,637C-441,585 -464,519 -464,451C-464,163 -231,128 64,128C362,128 592,162 592,451C592,519 569,585 511,637ZM-185,285C-242,285 -287,347 -287,426C-287,505 -242,567 -185,567C-128,567 -83,505 -83,426C-83,347 -128,285 -185,285ZM313,285C256,285 211,347 211,426C211,505 256,567 313,567C370,567 415,505 415,426C415,347 370,285 313,285ZM-134,1059C-89,1072 -12,1078 64,1078C140,1078 217,1072 262,1059C477,1206 618,1222 618,1222C661,1115 674,1004 674,937C674,906 672,885 668,876C741,797 785,701 785,572C785,9 317,0 199,0L-71,0C-189,0 -657,9 -657,572C-657,701 -613,797 -540,876C-544,885 -546,906 -546,937C-546,1004 -533,1115 -490,1222C-490,1222 -349,1206 -134,1059Z" style="fill:rgb(176,47,48);fill-rule:nonzero;"/>
    </g>
    <g transform="matrix(0.412148,0,0,0.412148,-50.9222,-46.3885)">
        <path d="M375.716,112.553L138.284,112.553C130.146,112.553 123.553,119.146 123.553,127.283L123.553,364.717C123.553,372.852 130.146,379.447 138.284,379.447L266.109,379.447L266.109,276.092L231.328,276.092L231.328,235.812L266.109,235.812L266.109,206.107C266.109,171.634 287.163,152.863 317.916,152.863C332.646,152.863 345.306,153.96 348.997,154.45L348.997,190.476L327.667,190.486C310.943,190.486 307.705,198.433 307.705,210.095L307.705,235.812L347.591,235.812L342.397,276.092L307.705,276.092L307.705,379.447L375.716,379.447C383.851,379.447 390.446,372.852 390.446,364.717L390.446,127.283C390.446,119.146 383.851,112.553 375.716,112.553Z" style="fill:rgb(59,90,155);fill-rule:nonzero;"/>
    </g>
    <g transform="matrix(0.405784,2.08506e-32,2.0268e-32,0.405784,-0.46875,9.58825)">
        <path d="M273.39,27.123C263.331,31.584 252.521,34.6 241.175,35.955C252.756,29.014 261.648,18.022 265.837,4.924C255,11.352 242.996,16.02 230.22,18.535C219.988,7.634 205.411,0.822 189.279,0.822C158.302,0.822 133.188,25.936 133.188,56.91C133.188,61.307 133.685,65.587 134.641,69.693C88.025,67.354 46.696,45.024 19.032,11.089C14.204,19.373 11.438,29.008 11.438,39.287C11.438,58.746 21.34,75.914 36.39,85.973C27.196,85.682 18.547,83.158 10.985,78.957C10.981,79.192 10.98,79.426 10.98,79.662C10.98,106.838 30.314,129.509 55.973,134.66C51.266,135.942 46.311,136.627 41.196,136.627C37.582,136.627 34.068,136.276 30.643,135.621C37.781,157.905 58.495,174.121 83.039,174.574C63.842,189.617 39.658,198.584 13.379,198.584C8.852,198.584 4.387,198.319 0,197.801C24.822,213.715 54.304,223 85.979,223C189.148,223 245.564,137.533 245.564,63.414C245.564,60.983 245.51,58.564 245.402,56.158C256.359,48.25 265.87,38.371 273.39,27.123Z" style="fill:rgb(92,167,220);fill-rule:nonzero;"/>
    </g>
    <g id="Layer 1" transform="matrix(1,0,0,1,8,8)">
        <path d="M22,72L52,72L52,61.974C52,60.457 52.688,59.022 53.872,58.073C60.309,52.911 64,45.23 64,37C64,22.112 51.888,10 37,10C22.112,10 10,22.112 10,37C10,45.229 13.691,52.91 20.128,58.073C21.312,59.022 22,60.457 22,61.974L22,72ZM57,82L17,82C14.239,82 12,79.762 12,77L12,64.27C4.344,57.262 0,47.455 0,37C0,16.598 16.598,0 37,0C57.402,0 74,16.598 74,37C74,47.456 69.656,57.262 62,64.271L62,77C62,79.762 59.762,82 57,82" style="fill:black;fill-rule:nonzero;"/>
        <path d="M49,34C53.416,34 57,37.585 57,42C57,46.415 53.416,50 49,50C44.584,50 41,46.415 41,42C41,37.585 44.584,34 49,34" style="fill:black;"/>
        <path d="M25,34C29.416,34 33,37.585 33,42C33,46.415 29.416,50 25,50C20.584,50 17,46.415 17,42C17,37.585 20.584,34 25,34" style="fill:black;"/>
        <path d="M37,81C34.239,81 32,78.762 32,76L32,66C32,63.238 34.239,61 37,61C39.762,61 42,63.238 42,66L42,76C42,78.762 39.762,81 37,81" style="fill:black;fill-rule:nonzero;"/>
    </g>
</svg>
