<?xml version="1.0" standalone="no"?>
<!DOCTYPE svg PUBLIC "-//W3C//DTD SVG 1.1//EN" "http://www.w3.org/Graphics/SVG/1.1/DTD/svg11.dtd">
<svg width="100%" height="100%" viewBox="0 0 1920 1920" version="1.1" xmlns="http://www.w3.org/2000/svg" xmlns:xlink="http://www.w3.org/1999/xlink" xml:space="preserve" style="fill-rule:evenodd;clip-rule:evenodd;stroke-linejoin:round;stroke-miterlimit:1.41421;">
    <g transform="matrix(5.19404,2.66888e-31,2.5943e-31,5.19404,-6,378.729)">
        <path d="M273.39,27.123C263.331,31.584 252.521,34.6 241.175,35.955C252.756,29.014 261.648,18.022 265.837,4.924C255,11.352 242.996,16.02 230.22,18.535C219.988,7.634 205.411,0.822 189.279,0.822C158.302,0.822 133.188,25.936 133.188,56.91C133.188,61.307 133.685,65.587 134.641,69.693C88.025,67.354 46.696,45.024 19.032,11.089C14.204,19.373 11.438,29.008 11.438,39.287C11.438,58.746 21.34,75.914 36.39,85.973C27.196,85.682 18.547,83.158 10.985,78.957C10.981,79.192 10.98,79.426 10.98,79.662C10.98,106.838 30.314,129.509 55.973,134.66C51.266,135.942 46.311,136.627 41.196,136.627C37.582,136.627 34.068,136.276 30.643,135.621C37.781,157.905 58.495,174.121 83.039,174.574C63.842,189.617 39.658,198.584 13.379,198.584C8.852,198.584 4.387,198.319 0,197.801C24.822,213.715 54.304,223 85.979,223C189.148,223 245.564,137.533 245.564,63.414C245.564,60.983 245.51,58.564 245.402,56.158C256.359,48.25 265.87,38.371 273.39,27.123Z" style="fill:rgb(92,167,220);fill-rule:nonzero;"/>
    </g>
</svg>
